# xmcd CD database file
#
# Track frame offsets:
#	150
#	19110
#	28341
#	37205
#	50600
#	55902
#	96861
#	120996
#	134360
#	145733
#	185865
#
# Disc length: 2775 seconds
#
# Revision: 0
# Processed by: cddbd v1.5.2PL0 Copyright (c) Steve Scherf et al.
# Submitted via: CDex 1.70beta2
#
DISCID=a20ad50b
DTITLE=Enid Blyton - Hanni and Nanni hüten ein Geheimnis
DYEAR=2005
DGENRE=Kinderhörspiele
TTITLE0=Allergische Reaktionen
TTITLE1=Verheißungsvolles Horoskop
TTITLE2=Ein munteres Trio
TTITLE3=Hähne im Korb
TTITLE4=Ellis Empörung
TTITLE5=Konstruktive Pläne
TTITLE6=Nächtlicher Besuch
TTITLE7=Eine menschliche Enttäuschung
TTITLE8=Kriegsrat
TTITLE9=Fappierende Ähnlichkeit
TTITLE10=Das große Jubiläum - bws
EXTD=YEAR: 2005
EXTT0=
EXTT1=
EXTT2=
EXTT3=
EXTT4=
EXTT5=
EXTT6=
EXTT7=
EXTT8=
EXTT9=
EXTT10=
PLAYORDER=
